<svg width="1440" height="789" viewBox="0 0 1440 789" fill="none" xmlns="http://www.w3.org/2000/svg">
<path d="M193.905 54.9836C104.256 89.9878 28.708 73.8193 0 54.9836V750.071C-4.34451e-06 728.42 92.9589 722.14 193.905 726.73C263.155 729.879 336.165 738.144 385.5 750.071C515.5 781.5 765.548 775.575 828.504 750.071C891.46 724.568 1030.88 715.631 1176 741.57C1287.5 761.5 1416.6 757.572 1449 741.57V23.98C1344.74 -2.52189 1264.47 54.9835 1188.11 54.9836C1084.36 54.9837 1045.58 -7.02409 852.175 54.9836C658.774 116.991 549.59 66.9093 501.131 54.9836C442.204 40.4815 307.334 10.6948 193.905 54.9836Z" fill="#2E6F8F"/>
<path d="M193.905 54.9836C104.256 89.9878 28.708 73.8193 0 54.9836V750.071C-4.34451e-06 728.42 92.9589 722.14 193.905 726.73C263.155 729.879 336.165 738.144 385.5 750.071C515.5 781.5 765.548 775.575 828.504 750.071C891.46 724.568 1030.88 715.631 1176 741.57C1287.5 761.5 1416.6 757.572 1449 741.57V23.98C1344.74 -2.52189 1264.47 54.9835 1188.11 54.9836C1084.36 54.9837 1045.58 -7.02409 852.175 54.9836C658.774 116.991 549.59 66.9093 501.131 54.9836C442.204 40.4815 307.334 10.6948 193.905 54.9836Z" fill="#2E6F8F"/>
<path d="M910 52.9998C928.833 46.6664 971.3 35.3998 990.5 40.9998C954 41.8222 947.5 47.5 910 52.9998Z" fill="white"/>
<path d="M53.5 58C77.2291 68.1062 106.812 66.4404 104.5 66C94 64 76.7141 60.0256 60.5 55C39.2918 48.4265 18.2584 38.113 9 35C10.8762 38.0165 34.1694 49.7671 53.5 58Z" fill="white"/>
<path d="M43.977 89.4392C64.2203 96.2743 78.7938 91.2206 76.8213 90.9228C67.8637 89.5701 64.4678 91.1473 50.6355 87.7484C32.5429 83.3025 16.8983 75.1054 9 73C10.6006 75.0401 27.4861 83.8711 43.977 89.4392Z" fill="white"/>
<path d="M165.5 48C156.3 51.178 142.312 58.8514 138.5 61.5C145.9 59.7783 166.73 51.6924 169.5 51C175.5 49.5 198.5 41 194.5 41C191.375 41 175.784 44.4476 165.5 48Z" fill="white"/>
<path d="M281 23.4164C285.74 21.5458 307.441 15.1321 317.975 14.1364C322.256 13.7318 327.574 13.9927 332.766 14.5293C348.868 13.8953 356.096 18.6788 352.645 17.7896C350.562 17.2527 341.856 15.4687 332.766 14.5293C329.316 14.6652 325.459 15.0498 321.211 15.7923C317.857 16.3786 289.237 23.529 281 23.4164Z" fill="white"/>
<path d="M269 23.1236C272.667 21.1236 281 18.124 287.5 17.1239C294 16.1238 276.667 21.4569 269 23.1236Z" fill="#2E6F8F"/>
<path d="M554 51C593.5 72 722.5 101.4 828.5 51.0002C723 77.7867 670 78.0271 554 51Z" fill="white"/>
<path d="M422.5 54C444.333 53.6667 499.3 59.1 544.5 83.5C488.5 62.5241 482 74 422.5 54Z" fill="white"/>
<path d="M215.5 72.4998C238 61.6664 290.7 42.5998 321.5 52.9998C273.421 52.9998 265 60.5 215.5 72.4998Z" fill="white"/>
<path d="M993 36C1011.5 36 1054.6 36.4 1073 46C1039 37.0755 1027.5 41 993 36Z" fill="white"/>
<path d="M1058 48C1062.83 48 1073.8 49.2 1079 54C1068.5 49.2312 1067.17 52 1058 48Z" fill="white"/>
<path d="M384.104 23.017C410.843 22.5989 475.143 33.7815 531.362 49.78C586.24 65.3968 458.856 35.8484 384.104 23.017Z" fill="white"/>
<path d="M1056 19.5C1075.67 19.8333 1123.4 24.6 1157 41C1190.6 57.4 1103.67 33.5 1056 19.5Z" fill="white"/>
<path d="M1350.2 2.9266C1322.11 6.69417 1275.62 23.3209 1246 39C1281.44 31.9191 1324.81 15.2285 1354.43 10.6765C1390.4 5.14903 1399.92 10.0074 1447 15.2285C1430.07 2.58392 1386.7 -1.96875 1350.2 2.9266Z" fill="white"/>
<path d="M1180 73C1203.17 74.8333 1272.7 70.6 1301.5 51C1255.5 64 1231 65 1180 73Z" fill="white"/>
<path d="M12 721.5C28 711.5 74.7 698.999 115.5 706.999C78 704.723 64.5 709.5 12 721.5Z" fill="white"/>
<path d="M161 708C200.915 708 291.41 715.855 322 726C291.309 719.904 226.406 716.455 161 708Z" fill="white"/>
<path d="M286.5 760.352C271.437 755.745 199.83 740.819 106 744.61L190.793 751.324C210.087 751.324 259.082 757.588 286.5 760.352Z" fill="#2E6F8F"/>
<path d="M434 727C513.167 749.667 700.8 781.4 818 727C663.5 751 621.5 756.38 434 727Z" fill="white"/>
<path d="M855 714C873 707.333 917.6 694.6 952 697C908 704 901.666 709.333 855 714Z" fill="white"/>
<path d="M242 744C456.445 788.246 532.685 788.983 544 783.821L242 744Z" fill="#2E6F8F"/>
<path d="M873.9 757.438C818.037 773.706 750.458 788.594 725 785.383C778.5 800 879.116 765.643 915 757.438L1025 742.923C1009.24 740.782 929.762 741.17 873.9 757.438Z" fill="#2E6F8F"/>
<path d="M1167 720.5C1247 741.667 1394.5 748.523 1446.5 727C1353 736.59 1280.5 733 1167 720.5Z" fill="white"/>
<path d="M1184 734C1167.24 732.667 1127.17 728.2 1101 721C1149.47 726.5 1145.43 726.667 1184 734Z" fill="white"/>
<path d="M1135 744C1180.83 750.333 1276.9 762.8 1294.5 762C1294.5 773.2 1188.17 754.667 1135 744Z" fill="#2E6F8F"/>
<path d="M17.5 749.999C35.8333 743.332 94.4 731.6 120 736C67.5 740.465 57.1667 746.999 17.5 749.999Z" fill="#2E6F8F"/>
</svg>
